<svg width="801px" height="196px" viewBox="0 0 801 196" version="1.1" xmlns="http://www.w3.org/2000/svg" xmlns:xlink="http://www.w3.org/1999/xlink">
    <title>Shape</title>
    <g id="Page-1" stroke="none" stroke-width="1" fill="none" fill-rule="evenodd">
        <path d="M482.591837,-302 L319.326531,-302 C310.309388,-302 303,-294.690612 303,-285.673469 L303,481.673469 C303,490.690612 310.309388,498 319.326531,498 L482.591837,498 C491.60898,498 498.918367,490.690612 498.918367,481.673469 L498.918367,-285.673469 C498.918367,-294.690612 491.60898,-302 482.591837,-302 Z M466.265306,465.346939 L335.653061,465.346939 L335.653061,391.877551 L400.959184,391.877551 L400.959184,359.22449 L335.653061,359.22449 L335.653061,261.265306 L400.959184,261.265306 L400.959184,228.612245 L335.653061,228.612245 L335.653061,114.326531 L400.959184,114.326531 L400.959184,81.6734694 L335.653061,81.6734694 L335.653061,-32.6122449 L400.959184,-32.6122449 L400.959184,-65.2653061 L335.653061,-65.2653061 L335.653061,-163.22449 L400.959184,-163.22449 L400.959184,-195.877551 L335.653061,-195.877551 L335.653061,-269.346939 L466.265306,-269.346939 L466.265306,465.346939 Z" id="Shape" fill="#020617" fill-rule="nonzero" transform="translate(400.9592, 98) scale(1, -1) rotate(-90) translate(-400.9592, -98)"></path>
    </g>
</svg>